<mxfile host="app.diagrams.net" modified="2022-01-10T12:53:08.309Z" agent="5.0 (Macintosh; Intel Mac OS X 10_15_7) AppleWebKit/537.36 (KHTML, like Gecko) Chrome/96.0.4664.110 Safari/537.36" etag="tFPsK9QGqsFHngs8gF8K" version="16.1.0" type="github">
  <diagram id="ih9pleKSEQteRKPzQB1U" name="第 1 页">
    <mxGraphModel dx="1042" dy="547" grid="1" gridSize="10" guides="1" tooltips="1" connect="1" arrows="1" fold="1" page="1" pageScale="1" pageWidth="827" pageHeight="1169" background="#ffffff" math="0" shadow="0">
      <root>
        <mxCell id="0" />
        <mxCell id="1" parent="0" />
        <mxCell id="TT5LCEEZez6pTTRrhasZ-1" value="&lt;font style=&quot;font-size: 14px&quot; face=&quot;Comic Sans MS&quot;&gt;1&lt;/font&gt;" style="ellipse;whiteSpace=wrap;html=1;aspect=fixed;fillColor=#f8cecc;strokeColor=#b85450;shadow=1;" vertex="1" parent="1">
          <mxGeometry x="240" y="280" width="40" height="40" as="geometry" />
        </mxCell>
        <mxCell id="TT5LCEEZez6pTTRrhasZ-2" value="&lt;font style=&quot;font-size: 14px&quot; face=&quot;Comic Sans MS&quot;&gt;3&lt;/font&gt;" style="ellipse;whiteSpace=wrap;html=1;aspect=fixed;fillColor=#f8cecc;strokeColor=#b85450;shadow=1;" vertex="1" parent="1">
          <mxGeometry x="320" y="280" width="40" height="40" as="geometry" />
        </mxCell>
        <mxCell id="TT5LCEEZez6pTTRrhasZ-8" style="edgeStyle=none;rounded=0;orthogonalLoop=1;jettySize=auto;html=1;exitX=0;exitY=1;exitDx=0;exitDy=0;entryX=0.5;entryY=0;entryDx=0;entryDy=0;endArrow=none;endFill=0;" edge="1" parent="1" source="TT5LCEEZez6pTTRrhasZ-3" target="TT5LCEEZez6pTTRrhasZ-1">
          <mxGeometry relative="1" as="geometry" />
        </mxCell>
        <mxCell id="TT5LCEEZez6pTTRrhasZ-9" style="edgeStyle=none;rounded=0;orthogonalLoop=1;jettySize=auto;html=1;exitX=1;exitY=1;exitDx=0;exitDy=0;entryX=0.5;entryY=0;entryDx=0;entryDy=0;endArrow=none;endFill=0;" edge="1" parent="1" source="TT5LCEEZez6pTTRrhasZ-3" target="TT5LCEEZez6pTTRrhasZ-2">
          <mxGeometry relative="1" as="geometry" />
        </mxCell>
        <mxCell id="TT5LCEEZez6pTTRrhasZ-3" value="&lt;font face=&quot;Comic Sans MS&quot; style=&quot;font-size: 14px&quot;&gt;2&lt;/font&gt;" style="ellipse;whiteSpace=wrap;html=1;aspect=fixed;fillColor=#f8cecc;strokeColor=#b85450;shadow=1;" vertex="1" parent="1">
          <mxGeometry x="280" y="200" width="40" height="40" as="geometry" />
        </mxCell>
        <mxCell id="TT5LCEEZez6pTTRrhasZ-4" value="&lt;font style=&quot;font-size: 14px&quot; face=&quot;Comic Sans MS&quot;&gt;5&lt;/font&gt;" style="ellipse;whiteSpace=wrap;html=1;aspect=fixed;fillColor=#f8cecc;strokeColor=#b85450;shadow=1;" vertex="1" parent="1">
          <mxGeometry x="360" y="200" width="40" height="40" as="geometry" />
        </mxCell>
        <mxCell id="TT5LCEEZez6pTTRrhasZ-6" style="rounded=0;orthogonalLoop=1;jettySize=auto;html=1;exitX=0;exitY=1;exitDx=0;exitDy=0;entryX=0.5;entryY=0;entryDx=0;entryDy=0;endArrow=none;endFill=0;" edge="1" parent="1" source="TT5LCEEZez6pTTRrhasZ-5" target="TT5LCEEZez6pTTRrhasZ-3">
          <mxGeometry relative="1" as="geometry" />
        </mxCell>
        <mxCell id="TT5LCEEZez6pTTRrhasZ-7" style="edgeStyle=none;rounded=0;orthogonalLoop=1;jettySize=auto;html=1;exitX=1;exitY=1;exitDx=0;exitDy=0;entryX=0.5;entryY=0;entryDx=0;entryDy=0;endArrow=none;endFill=0;" edge="1" parent="1" source="TT5LCEEZez6pTTRrhasZ-5" target="TT5LCEEZez6pTTRrhasZ-4">
          <mxGeometry relative="1" as="geometry" />
        </mxCell>
        <mxCell id="TT5LCEEZez6pTTRrhasZ-5" value="&lt;font style=&quot;font-size: 14px&quot; face=&quot;Comic Sans MS&quot;&gt;4&lt;/font&gt;" style="ellipse;whiteSpace=wrap;html=1;aspect=fixed;fillColor=#f8cecc;strokeColor=#b85450;shadow=1;" vertex="1" parent="1">
          <mxGeometry x="320" y="120" width="40" height="40" as="geometry" />
        </mxCell>
        <mxCell id="TT5LCEEZez6pTTRrhasZ-15" style="edgeStyle=none;rounded=0;orthogonalLoop=1;jettySize=auto;html=1;exitX=1;exitY=0.25;exitDx=0;exitDy=0;entryX=0;entryY=0.25;entryDx=0;entryDy=0;fontFamily=Comic Sans MS;fontSize=14;endArrow=classic;endFill=1;startArrow=none;startFill=0;" edge="1" parent="1" source="TT5LCEEZez6pTTRrhasZ-10" target="TT5LCEEZez6pTTRrhasZ-11">
          <mxGeometry relative="1" as="geometry" />
        </mxCell>
        <mxCell id="TT5LCEEZez6pTTRrhasZ-10" value="1" style="rounded=0;whiteSpace=wrap;html=1;shadow=1;fontFamily=Comic Sans MS;fontSize=14;fillColor=#d5e8d4;strokeColor=#82b366;" vertex="1" parent="1">
          <mxGeometry x="160" y="380" width="40" height="40" as="geometry" />
        </mxCell>
        <mxCell id="TT5LCEEZez6pTTRrhasZ-16" style="edgeStyle=none;rounded=0;orthogonalLoop=1;jettySize=auto;html=1;exitX=0;exitY=0.75;exitDx=0;exitDy=0;entryX=1;entryY=0.75;entryDx=0;entryDy=0;fontFamily=Comic Sans MS;fontSize=14;startArrow=none;startFill=0;endArrow=classic;endFill=1;" edge="1" parent="1" source="TT5LCEEZez6pTTRrhasZ-11" target="TT5LCEEZez6pTTRrhasZ-10">
          <mxGeometry relative="1" as="geometry" />
        </mxCell>
        <mxCell id="TT5LCEEZez6pTTRrhasZ-17" style="edgeStyle=none;rounded=0;orthogonalLoop=1;jettySize=auto;html=1;exitX=1;exitY=0.25;exitDx=0;exitDy=0;entryX=0;entryY=0.25;entryDx=0;entryDy=0;fontFamily=Comic Sans MS;fontSize=14;startArrow=none;startFill=0;endArrow=classic;endFill=1;" edge="1" parent="1" source="TT5LCEEZez6pTTRrhasZ-11" target="TT5LCEEZez6pTTRrhasZ-12">
          <mxGeometry relative="1" as="geometry" />
        </mxCell>
        <mxCell id="TT5LCEEZez6pTTRrhasZ-11" value="2" style="rounded=0;whiteSpace=wrap;html=1;shadow=1;fontFamily=Comic Sans MS;fontSize=14;fillColor=#d5e8d4;strokeColor=#82b366;" vertex="1" parent="1">
          <mxGeometry x="240" y="380" width="40" height="40" as="geometry" />
        </mxCell>
        <mxCell id="TT5LCEEZez6pTTRrhasZ-18" style="edgeStyle=none;rounded=0;orthogonalLoop=1;jettySize=auto;html=1;exitX=0;exitY=0.75;exitDx=0;exitDy=0;entryX=1;entryY=0.75;entryDx=0;entryDy=0;fontFamily=Comic Sans MS;fontSize=14;startArrow=none;startFill=0;endArrow=classic;endFill=1;" edge="1" parent="1" source="TT5LCEEZez6pTTRrhasZ-12" target="TT5LCEEZez6pTTRrhasZ-11">
          <mxGeometry relative="1" as="geometry" />
        </mxCell>
        <mxCell id="TT5LCEEZez6pTTRrhasZ-19" style="edgeStyle=none;rounded=0;orthogonalLoop=1;jettySize=auto;html=1;exitX=1;exitY=0.25;exitDx=0;exitDy=0;entryX=0;entryY=0.25;entryDx=0;entryDy=0;fontFamily=Comic Sans MS;fontSize=14;startArrow=none;startFill=0;endArrow=classic;endFill=1;" edge="1" parent="1" source="TT5LCEEZez6pTTRrhasZ-12" target="TT5LCEEZez6pTTRrhasZ-13">
          <mxGeometry relative="1" as="geometry" />
        </mxCell>
        <mxCell id="TT5LCEEZez6pTTRrhasZ-12" value="3" style="rounded=0;whiteSpace=wrap;html=1;shadow=1;fontFamily=Comic Sans MS;fontSize=14;fillColor=#d5e8d4;strokeColor=#82b366;" vertex="1" parent="1">
          <mxGeometry x="320" y="380" width="40" height="40" as="geometry" />
        </mxCell>
        <mxCell id="TT5LCEEZez6pTTRrhasZ-20" style="edgeStyle=none;rounded=0;orthogonalLoop=1;jettySize=auto;html=1;exitX=0;exitY=0.75;exitDx=0;exitDy=0;entryX=1;entryY=0.75;entryDx=0;entryDy=0;fontFamily=Comic Sans MS;fontSize=14;startArrow=none;startFill=0;endArrow=classic;endFill=1;" edge="1" parent="1" source="TT5LCEEZez6pTTRrhasZ-13" target="TT5LCEEZez6pTTRrhasZ-12">
          <mxGeometry relative="1" as="geometry" />
        </mxCell>
        <mxCell id="TT5LCEEZez6pTTRrhasZ-21" style="edgeStyle=none;rounded=0;orthogonalLoop=1;jettySize=auto;html=1;exitX=1;exitY=0.25;exitDx=0;exitDy=0;entryX=0;entryY=0.25;entryDx=0;entryDy=0;fontFamily=Comic Sans MS;fontSize=14;startArrow=none;startFill=0;endArrow=classic;endFill=1;" edge="1" parent="1" source="TT5LCEEZez6pTTRrhasZ-13" target="TT5LCEEZez6pTTRrhasZ-14">
          <mxGeometry relative="1" as="geometry" />
        </mxCell>
        <mxCell id="TT5LCEEZez6pTTRrhasZ-13" value="4" style="rounded=0;whiteSpace=wrap;html=1;shadow=1;fontFamily=Comic Sans MS;fontSize=14;fillColor=#d5e8d4;strokeColor=#82b366;" vertex="1" parent="1">
          <mxGeometry x="400" y="380" width="40" height="40" as="geometry" />
        </mxCell>
        <mxCell id="TT5LCEEZez6pTTRrhasZ-22" style="edgeStyle=none;rounded=0;orthogonalLoop=1;jettySize=auto;html=1;exitX=0;exitY=0.75;exitDx=0;exitDy=0;entryX=1;entryY=0.75;entryDx=0;entryDy=0;fontFamily=Comic Sans MS;fontSize=14;startArrow=none;startFill=0;endArrow=classic;endFill=1;" edge="1" parent="1" source="TT5LCEEZez6pTTRrhasZ-14" target="TT5LCEEZez6pTTRrhasZ-13">
          <mxGeometry relative="1" as="geometry" />
        </mxCell>
        <mxCell id="TT5LCEEZez6pTTRrhasZ-14" value="5" style="rounded=0;whiteSpace=wrap;html=1;shadow=1;fontFamily=Comic Sans MS;fontSize=14;fillColor=#d5e8d4;strokeColor=#82b366;" vertex="1" parent="1">
          <mxGeometry x="480" y="380" width="40" height="40" as="geometry" />
        </mxCell>
        <mxCell id="TT5LCEEZez6pTTRrhasZ-23" style="edgeStyle=none;rounded=0;orthogonalLoop=1;jettySize=auto;html=1;exitX=1;exitY=0.25;exitDx=0;exitDy=0;entryX=0;entryY=0.25;entryDx=0;entryDy=0;fontFamily=Comic Sans MS;fontSize=14;endArrow=classic;endFill=1;startArrow=none;startFill=0;" edge="1" parent="1" source="TT5LCEEZez6pTTRrhasZ-24" target="TT5LCEEZez6pTTRrhasZ-27">
          <mxGeometry relative="1" as="geometry" />
        </mxCell>
        <mxCell id="TT5LCEEZez6pTTRrhasZ-38" style="edgeStyle=orthogonalEdgeStyle;rounded=0;orthogonalLoop=1;jettySize=auto;html=1;exitX=0;exitY=0.25;exitDx=0;exitDy=0;fontFamily=Comic Sans MS;fontSize=14;startArrow=none;startFill=0;endArrow=classic;endFill=1;entryX=1;entryY=0.25;entryDx=0;entryDy=0;fillColor=#f8cecc;strokeColor=#b85450;" edge="1" parent="1" source="TT5LCEEZez6pTTRrhasZ-24" target="TT5LCEEZez6pTTRrhasZ-35">
          <mxGeometry relative="1" as="geometry">
            <mxPoint x="620" y="620" as="targetPoint" />
            <Array as="points">
              <mxPoint x="140" y="650" />
              <mxPoint x="140" y="620" />
              <mxPoint x="540" y="620" />
              <mxPoint x="540" y="650" />
            </Array>
          </mxGeometry>
        </mxCell>
        <mxCell id="TT5LCEEZez6pTTRrhasZ-24" value="1" style="rounded=0;whiteSpace=wrap;html=1;shadow=1;fontFamily=Comic Sans MS;fontSize=14;fillColor=#f8cecc;strokeColor=#b85450;" vertex="1" parent="1">
          <mxGeometry x="160" y="640" width="40" height="40" as="geometry" />
        </mxCell>
        <mxCell id="TT5LCEEZez6pTTRrhasZ-25" style="edgeStyle=none;rounded=0;orthogonalLoop=1;jettySize=auto;html=1;exitX=0;exitY=0.75;exitDx=0;exitDy=0;entryX=1;entryY=0.75;entryDx=0;entryDy=0;fontFamily=Comic Sans MS;fontSize=14;startArrow=none;startFill=0;endArrow=classic;endFill=1;" edge="1" parent="1" source="TT5LCEEZez6pTTRrhasZ-27" target="TT5LCEEZez6pTTRrhasZ-24">
          <mxGeometry relative="1" as="geometry" />
        </mxCell>
        <mxCell id="TT5LCEEZez6pTTRrhasZ-26" style="edgeStyle=none;rounded=0;orthogonalLoop=1;jettySize=auto;html=1;exitX=1;exitY=0.25;exitDx=0;exitDy=0;entryX=0;entryY=0.25;entryDx=0;entryDy=0;fontFamily=Comic Sans MS;fontSize=14;startArrow=none;startFill=0;endArrow=classic;endFill=1;" edge="1" parent="1" source="TT5LCEEZez6pTTRrhasZ-27" target="TT5LCEEZez6pTTRrhasZ-30">
          <mxGeometry relative="1" as="geometry" />
        </mxCell>
        <mxCell id="TT5LCEEZez6pTTRrhasZ-27" value="2" style="rounded=0;whiteSpace=wrap;html=1;shadow=1;fontFamily=Comic Sans MS;fontSize=14;fillColor=#d5e8d4;strokeColor=#82b366;" vertex="1" parent="1">
          <mxGeometry x="240" y="640" width="40" height="40" as="geometry" />
        </mxCell>
        <mxCell id="TT5LCEEZez6pTTRrhasZ-28" style="edgeStyle=none;rounded=0;orthogonalLoop=1;jettySize=auto;html=1;exitX=0;exitY=0.75;exitDx=0;exitDy=0;entryX=1;entryY=0.75;entryDx=0;entryDy=0;fontFamily=Comic Sans MS;fontSize=14;startArrow=none;startFill=0;endArrow=classic;endFill=1;" edge="1" parent="1" source="TT5LCEEZez6pTTRrhasZ-30" target="TT5LCEEZez6pTTRrhasZ-27">
          <mxGeometry relative="1" as="geometry" />
        </mxCell>
        <mxCell id="TT5LCEEZez6pTTRrhasZ-29" style="edgeStyle=none;rounded=0;orthogonalLoop=1;jettySize=auto;html=1;exitX=1;exitY=0.25;exitDx=0;exitDy=0;entryX=0;entryY=0.25;entryDx=0;entryDy=0;fontFamily=Comic Sans MS;fontSize=14;startArrow=none;startFill=0;endArrow=classic;endFill=1;" edge="1" parent="1" source="TT5LCEEZez6pTTRrhasZ-30" target="TT5LCEEZez6pTTRrhasZ-33">
          <mxGeometry relative="1" as="geometry" />
        </mxCell>
        <mxCell id="TT5LCEEZez6pTTRrhasZ-30" value="3" style="rounded=0;whiteSpace=wrap;html=1;shadow=1;fontFamily=Comic Sans MS;fontSize=14;fillColor=#d5e8d4;strokeColor=#82b366;" vertex="1" parent="1">
          <mxGeometry x="320" y="640" width="40" height="40" as="geometry" />
        </mxCell>
        <mxCell id="TT5LCEEZez6pTTRrhasZ-31" style="edgeStyle=none;rounded=0;orthogonalLoop=1;jettySize=auto;html=1;exitX=0;exitY=0.75;exitDx=0;exitDy=0;entryX=1;entryY=0.75;entryDx=0;entryDy=0;fontFamily=Comic Sans MS;fontSize=14;startArrow=none;startFill=0;endArrow=classic;endFill=1;" edge="1" parent="1" source="TT5LCEEZez6pTTRrhasZ-33" target="TT5LCEEZez6pTTRrhasZ-30">
          <mxGeometry relative="1" as="geometry" />
        </mxCell>
        <mxCell id="TT5LCEEZez6pTTRrhasZ-32" style="edgeStyle=none;rounded=0;orthogonalLoop=1;jettySize=auto;html=1;exitX=1;exitY=0.25;exitDx=0;exitDy=0;entryX=0;entryY=0.25;entryDx=0;entryDy=0;fontFamily=Comic Sans MS;fontSize=14;startArrow=none;startFill=0;endArrow=classic;endFill=1;" edge="1" parent="1" source="TT5LCEEZez6pTTRrhasZ-33" target="TT5LCEEZez6pTTRrhasZ-35">
          <mxGeometry relative="1" as="geometry" />
        </mxCell>
        <mxCell id="TT5LCEEZez6pTTRrhasZ-33" value="4" style="rounded=0;whiteSpace=wrap;html=1;shadow=1;fontFamily=Comic Sans MS;fontSize=14;fillColor=#d5e8d4;strokeColor=#82b366;" vertex="1" parent="1">
          <mxGeometry x="400" y="640" width="40" height="40" as="geometry" />
        </mxCell>
        <mxCell id="TT5LCEEZez6pTTRrhasZ-34" style="edgeStyle=none;rounded=0;orthogonalLoop=1;jettySize=auto;html=1;exitX=0;exitY=0.75;exitDx=0;exitDy=0;entryX=1;entryY=0.75;entryDx=0;entryDy=0;fontFamily=Comic Sans MS;fontSize=14;startArrow=none;startFill=0;endArrow=classic;endFill=1;" edge="1" parent="1" source="TT5LCEEZez6pTTRrhasZ-35" target="TT5LCEEZez6pTTRrhasZ-33">
          <mxGeometry relative="1" as="geometry" />
        </mxCell>
        <mxCell id="TT5LCEEZez6pTTRrhasZ-37" style="edgeStyle=orthogonalEdgeStyle;rounded=0;orthogonalLoop=1;jettySize=auto;html=1;fontFamily=Comic Sans MS;fontSize=14;startArrow=none;startFill=0;endArrow=classic;endFill=1;entryX=0;entryY=0.75;entryDx=0;entryDy=0;exitX=1;exitY=0.75;exitDx=0;exitDy=0;fillColor=#dae8fc;strokeColor=#6c8ebf;" edge="1" parent="1" source="TT5LCEEZez6pTTRrhasZ-35" target="TT5LCEEZez6pTTRrhasZ-24">
          <mxGeometry relative="1" as="geometry">
            <mxPoint x="560" y="660" as="targetPoint" />
            <mxPoint x="590" y="700" as="sourcePoint" />
            <Array as="points">
              <mxPoint x="540" y="670" />
              <mxPoint x="540" y="700" />
              <mxPoint x="140" y="700" />
              <mxPoint x="140" y="670" />
            </Array>
          </mxGeometry>
        </mxCell>
        <mxCell id="TT5LCEEZez6pTTRrhasZ-35" value="5" style="rounded=0;whiteSpace=wrap;html=1;shadow=1;fontFamily=Comic Sans MS;fontSize=14;fillColor=#dae8fc;strokeColor=#6c8ebf;" vertex="1" parent="1">
          <mxGeometry x="480" y="640" width="40" height="40" as="geometry" />
        </mxCell>
        <mxCell id="TT5LCEEZez6pTTRrhasZ-39" value="最后对头尾节点(fristVisit, lastVisit)进行拼接" style="text;html=1;strokeColor=none;fillColor=none;align=center;verticalAlign=middle;whiteSpace=wrap;rounded=0;shadow=1;fontFamily=Comic Sans MS;fontSize=14;" vertex="1" parent="1">
          <mxGeometry x="160" y="580" width="360" height="40" as="geometry" />
        </mxCell>
        <mxCell id="TT5LCEEZez6pTTRrhasZ-40" value="在遍历二叉树的过程中，通过lastVisit链接前后节点" style="text;html=1;strokeColor=none;fillColor=none;align=center;verticalAlign=middle;whiteSpace=wrap;rounded=0;shadow=1;fontFamily=Comic Sans MS;fontSize=14;" vertex="1" parent="1">
          <mxGeometry x="160" y="340" width="360" height="40" as="geometry" />
        </mxCell>
        <mxCell id="TT5LCEEZez6pTTRrhasZ-41" value="&lt;font color=&quot;#ea6b66&quot;&gt;fristVisit&lt;/font&gt;" style="text;html=1;strokeColor=none;fillColor=none;align=center;verticalAlign=middle;whiteSpace=wrap;rounded=0;shadow=1;fontFamily=Comic Sans MS;fontSize=14;" vertex="1" parent="1">
          <mxGeometry x="140" y="700" width="80" height="40" as="geometry" />
        </mxCell>
        <mxCell id="TT5LCEEZez6pTTRrhasZ-42" value="&lt;font color=&quot;#3399ff&quot;&gt;lastVisit&lt;/font&gt;" style="text;html=1;strokeColor=none;fillColor=none;align=center;verticalAlign=middle;whiteSpace=wrap;rounded=0;shadow=1;fontFamily=Comic Sans MS;fontSize=14;fontColor=#EA6B66;" vertex="1" parent="1">
          <mxGeometry x="460" y="700" width="80" height="40" as="geometry" />
        </mxCell>
      </root>
    </mxGraphModel>
  </diagram>
</mxfile>
